<svg id="Layer_1" data-name="Layer 1" xmlns="http://www.w3.org/2000/svg" viewBox="0 0 721.35 238.78"><path d="M587.58,84.19l55.53,16.74,3.5-11.63L591.08,72.65ZM569.23,48.9h58V36.79h-58Zm42.28,74.46,39.64,100.75h16.94l40.3-100.75H695.14L660,211.15l-34.62-87.79ZM233.58,69.91H354.1V57.23H233.58ZM212.76,237.73h12.68V132.53H212.76ZM177,106H282.2V93.37H177ZM105,175.1h12.58a48.2,48.2,0,0,1,4-19.48,36.19,36.19,0,0,1,10.84-14.43,23.5,23.5,0,0,1,14.71-5.35,23.16,23.16,0,0,1,14.66,5.4,36.17,36.17,0,0,1,10.69,14.38,47.55,47.55,0,0,1,4,19.29h12.21a61.52,61.52,0,0,0-3.31-19.86,55.25,55.25,0,0,0-8.8-16.56A42.85,42.85,0,0,0,162.91,127a33.68,33.68,0,0,0-15.71-3.93,35.16,35.16,0,0,0-16.36,4.17,44.72,44.72,0,0,0-13.44,11.25,60.33,60.33,0,0,0-9,16.65,59.35,59.35,0,0,0-3.41,20m0,10a61.54,61.54,0,0,0,3.31,20,58,58,0,0,0,8.8,16.65,42.55,42.55,0,0,0,13.62,11.5,33.79,33.79,0,0,0,15.71,3.92A35.18,35.18,0,0,0,162.81,233a44.76,44.76,0,0,0,13.44-11.26,60.45,60.45,0,0,0,12.39-36.61H176.06a46.86,46.86,0,0,1-2.37,15,42.6,42.6,0,0,1-6.34,12.58,32.07,32.07,0,0,1-9.5,8.56,22,22,0,0,1-11.22,3.17A23.32,23.32,0,0,1,131.88,219a36.22,36.22,0,0,1-10.69-14.38,48.05,48.05,0,0,1-4-19.49ZM51.65,50.61H64.24q0-15.81,8.6-27.34T93.47,11.63q9,0,16.46,6.91a41,41,0,0,1,11,17.69h12.58a54.56,54.56,0,0,0-8.32-18.92,43,43,0,0,0-14-13.44A33.1,33.1,0,0,0,93.75-1,34.25,34.25,0,0,0,77.48,3.12,42.23,42.23,0,0,0,64.05,14.28,54.21,54.21,0,0,0,55,31a60,60,0,0,0-3.31,19.63M18.26,184.66a46.4,46.4,0,0,1,4.07-19.4,36.75,36.75,0,0,1,10.88-14.37,23.63,23.63,0,0,1,14.66-5.3,23.63,23.63,0,0,1,14.66,5.3,36.28,36.28,0,0,1,10.6,14.37,48.9,48.9,0,0,1,0,38.6,36.36,36.36,0,0,1-10.79,14.52,22.7,22.7,0,0,1-29.32,0A35.32,35.32,0,0,1,22.23,204a46.75,46.75,0,0,1-4-19.3m-12.21-.1a60.7,60.7,0,0,0,2.18,16.09,57.25,57.25,0,0,0,6,14.28,53.78,53.78,0,0,0,8.89,11.35,37.74,37.74,0,0,0,11.45,7.57,32.84,32.84,0,0,0,29.33-1.51A43.46,43.46,0,0,0,77.29,221a57.1,57.1,0,0,0,9.08-16.56,61.27,61.27,0,0,0,0-39.73,57,57,0,0,0-9.08-16.56,43.58,43.58,0,0,0-13.57-11.21,33.45,33.45,0,0,0-32.22,0,44.17,44.17,0,0,0-13.24,11.26A55.6,55.6,0,0,0,9.37,164.7a60.69,60.69,0,0,0-3.32,19.86M0,96H12.58a44.5,44.5,0,0,1,8.8-27.44Q30,56.85,42.1,56.85V44a33.65,33.65,0,0,0-16.27,4.26A43.93,43.93,0,0,0,12.39,59.5,55.59,55.59,0,0,0,3.31,76.29,60,60,0,0,0,0,96m96.12,18.73,9.74,8.13L200.37,20.71l-9.74-8.13Z" transform="translate(0 1.05)"/><rect x="516.06" y="58.47" width="16.46" height="12.68"/><rect x="482.19" y="97.63" width="12.68" height="16.65"/><rect x="405.18" y="58.28" width="56.19" height="12.68"/><polygon points="511.71 168.68 507.45 187.69 525.14 187.69 520.22 168.01 534.79 182.11 543.59 166.79 525.05 161.01 543.59 155.72 534.79 140.39 520.41 153.63 525.14 134.81 507.45 134.81 511.52 153.07 497.8 140.39 489 155.72 507.64 161.01 489 166.79 497.8 182.11 511.71 168.68"/><rect x="663.36" y="58.28" width="57.99" height="12.11"/></svg>