<svg id="Layer_1" data-name="Layer 1" xmlns="http://www.w3.org/2000/svg" viewBox="0 0 826.79 132.57"><defs><style>.cls-1{fill:#fff;}</style></defs><path class="cls-1" d="M810.45,83.56c0,22.35-11.27,35.31-27,35.31-15.59,0-27-12.59-27-35.31,0-22.34,11.45-35.68,27.23-35.68,15.58,0,26.85,12.77,26.85,35.68M740,83.94c0,31,18.59,48.63,43.38,48.63,24.22,0,43.38-18.21,43.38-49.38,0-31.55-18.41-49-43.19-49C759.37,34.18,740,52,740,83.94M621.17,4.88V130.7h15.4v-99h.37l64.22,99H717.5V4.88H702.1v98.21h-.37L637.88,4.88ZM552.63,19.53V4.88H472.45V130.7h80.18V116.05H488.79V73.42h55V58.78h-55V19.53ZM413.49,34.18A29.73,29.73,0,0,0,384.38,56H384c-3.2-13.71-12.4-21.78-27.23-21.78-16.15,0-26.1,10.89-28.73,21.22h-.38V36.06H311.9V130.7h16v-49c0-19.34,10.14-33.42,23.85-33.42,11.64,0,17.65,7.7,17.65,22.91V130.7h16V82.06c0-19.72,10.14-33.8,23.85-33.8,11.83,0,17.65,7.7,17.65,22.91V130.7h15.77V67.79c0-20.66-9.95-33.61-29.1-33.61M225,130.7h16V36.06H225Zm-.38-113.8H241.3V0H224.58Zm-123.93-12V130.7H117V73.42h64V130.7h16.34V4.88H181v53.9H117V4.88ZM0,84.31c0,31,18,48.26,42.44,48.26s37-15.58,39.25-37.18h-16c-2.06,13.52-8.26,23.48-23.09,23.48-15.21,0-26.29-12.59-26.29-34.93C16.34,61,27.6,47.88,43,47.88S65.16,59.71,65.72,71.55h16C81.31,51.64,67.6,34.18,43,34.18c-24,0-43,18.21-43,50.13" transform="translate(0 0)"/></svg>